<svg width="32" height="32" viewBox="0 0 32 32" fill="none" xmlns="http://www.w3.org/2000/svg">
<path d="M26.6667 16V26.6667" stroke="#F9F9F9" stroke-width="1.75" stroke-linecap="round" stroke-linejoin="round"/>
<path d="M19.6001 19.5598V26.6665" stroke="#F9F9F9" stroke-width="1.75" stroke-linecap="round" stroke-linejoin="round"/>
<path d="M5.33329 22.6665V26.6665" stroke="#F9F9F9" stroke-width="1.75" stroke-linecap="round" stroke-linejoin="round"/>
<path d="M12.4001 18.1333V26.6666" stroke="#F9F9F9" stroke-width="1.75" stroke-linecap="round" stroke-linejoin="round"/>
<path d="M21.2527 11.3446C22.1639 12.2558 22.1639 13.7332 21.2527 14.6444C20.3414 15.5556 18.864 15.5556 17.9528 14.6444C17.0416 13.7332 17.0416 12.2558 17.9528 11.3446C18.8641 10.4333 20.3414 10.4333 21.2527 11.3446" stroke="#F9F9F9" stroke-width="1.75" stroke-linecap="round" stroke-linejoin="round"/>
<path d="M28.4565 5.34064C29.3677 6.25187 29.3677 7.72926 28.4565 8.64047C27.5453 9.5517 26.0679 9.5517 25.1567 8.64047C24.2455 7.72925 24.2455 6.25186 25.1567 5.34064C26.0679 4.42942 27.5453 4.42942 28.4565 5.34064" stroke="#F9F9F9" stroke-width="1.75" stroke-linecap="round" stroke-linejoin="round"/>
<path d="M6.84323 12.5367C7.75445 13.4479 7.75445 14.9253 6.84323 15.8365C5.93201 16.7477 4.45462 16.7477 3.5434 15.8365C2.63218 14.9253 2.63218 13.4479 3.5434 12.5367C4.45463 11.6255 5.93202 11.6255 6.84323 12.5367" stroke="#F9F9F9" stroke-width="1.75" stroke-linecap="round" stroke-linejoin="round"/>
<path d="M14.0486 6.534C14.9598 7.44523 14.9598 8.92262 14.0486 9.83383C13.1373 10.7451 11.6599 10.7451 10.7487 9.83383C9.8375 8.92261 9.8375 7.44522 10.7487 6.534C11.6599 5.62278 13.1373 5.62278 14.0486 6.534" stroke="#F9F9F9" stroke-width="1.75" stroke-linecap="round" stroke-linejoin="round"/>
<path d="M25.0267 8.47998L21.3867 11.5066" stroke="#F9F9F9" stroke-width="1.75" stroke-linecap="round" stroke-linejoin="round"/>
<path d="M17.6534 11.7066L14.3334 9.47998" stroke="#F9F9F9" stroke-width="1.75" stroke-linecap="round" stroke-linejoin="round"/>
<path d="M6.98669 12.7066L10.6134 9.67993" stroke="#F9F9F9" stroke-width="1.75" stroke-linecap="round" stroke-linejoin="round"/>
</svg>
