<svg width="32" height="32" viewBox="0 0 32 32" fill="none" xmlns="http://www.w3.org/2000/svg">
<path d="M14.667 28.0001C14.667 26.1591 13.1746 24.6667 11.3336 24.6667H4.66695C2.826 24.6667 1.33362 26.1591 1.33362 28.0001" stroke="#F9F9F9" stroke-width="1.75" stroke-linecap="round" stroke-linejoin="round"/>
<circle cx="8.00033" cy="18.0001" r="3.33333" stroke="#F9F9F9" stroke-width="1.75" stroke-linecap="round" stroke-linejoin="round"/>
<path d="M18.6669 28H26.6669C28.1397 28 29.3336 26.8061 29.3336 25.3333V6.66667C29.3336 5.19391 28.1397 4 26.6669 4H10.6669C9.19415 4 8.00024 5.19391 8.00024 6.66667V10.6667" stroke="#F9F9F9" stroke-width="1.75" stroke-linecap="round" stroke-linejoin="round"/>
<path d="M24.667 12.6667V8.66675H20.667" stroke="#F9F9F9" stroke-width="1.75" stroke-linecap="round" stroke-linejoin="round"/>
<path d="M19.9981 13.3334L17.3336 10.6667" stroke="#F9F9F9" stroke-width="1.75" stroke-linecap="round" stroke-linejoin="round"/>
<path d="M17.3337 10.6667L14.667 13.3334" stroke="#F9F9F9" stroke-width="1.75" stroke-linecap="round" stroke-linejoin="round"/>
<path d="M19.9977 13.3334L24.6643 8.66675" stroke="#F9F9F9" stroke-width="1.75" stroke-linecap="round" stroke-linejoin="round"/>
<path d="M24.0002 18.6667H16.0002" stroke="#F9F9F9" stroke-width="1.75" stroke-linecap="round" stroke-linejoin="round"/>
<path d="M24.0003 22.6667H18.667" stroke="#F9F9F9" stroke-width="1.75" stroke-linecap="round" stroke-linejoin="round"/>
</svg>
