<svg width="51" height="50" viewBox="0 0 51 50" fill="none" xmlns="http://www.w3.org/2000/svg">
<rect x="0.5" width="50" height="50" rx="25" fill="#EAF2FF"/>
<path d="M18.9441 38.084C17.9601 38.084 17.0281 37.8667 16.1907 37.4787L12.1667 38.3333L13.0081 34.3013C12.6174 33.4613 12.3987 32.5253 12.3987 31.5387C12.3987 27.928 15.3254 25 18.9374 25C22.5494 25 25.4761 27.928 25.4761 31.5387C25.4761 35.1493 22.5481 38.0773 18.9374 38.0773" stroke="#202020" stroke-width="1.75" stroke-linecap="round" stroke-linejoin="round"/>
<path d="M18.316 25.0252C17.792 23.8852 17.5 22.6358 17.5 21.3198C17.5 15.9638 22.2973 11.6665 28.1667 11.6665C34.036 11.6665 38.8333 15.9638 38.8333 21.3198C38.8333 24.4852 37.1507 27.2718 34.568 29.0292C34.5693 30.0372 34.5667 31.3958 34.5667 32.8225L30.3813 30.7612C29.6653 30.8985 28.9253 30.9732 28.1667 30.9732C27.2187 30.9732 26.3027 30.8505 25.4253 30.6398" stroke="#202020" stroke-width="1.75" stroke-linecap="round" stroke-linejoin="round"/>
<path d="M15.8937 31.6195C15.9198 31.6456 15.9198 31.6878 15.8937 31.7138C15.8677 31.7398 15.8255 31.7398 15.7995 31.7138C15.7734 31.6878 15.7734 31.6456 15.7995 31.6195C15.8255 31.5935 15.8677 31.5935 15.8937 31.6195" stroke="#202020" stroke-width="1.75" stroke-linecap="round" stroke-linejoin="round"/>
<path d="M18.8937 31.6195C18.9198 31.6456 18.9198 31.6878 18.8937 31.7138C18.8677 31.7398 18.8255 31.7398 18.7995 31.7138C18.7734 31.6878 18.7734 31.6456 18.7995 31.6195C18.8255 31.5935 18.8677 31.5935 18.8937 31.6195" stroke="#202020" stroke-width="1.75" stroke-linecap="round" stroke-linejoin="round"/>
<path d="M21.8937 31.6195C21.9198 31.6456 21.9198 31.6878 21.8937 31.7138C21.8677 31.7398 21.8255 31.7398 21.7995 31.7138C21.7734 31.6878 21.7734 31.6456 21.7995 31.6195C21.8255 31.5935 21.8677 31.5935 21.8937 31.6195" stroke="#202020" stroke-width="1.75" stroke-linecap="round" stroke-linejoin="round"/>
<path d="M28.1668 22.3924C28.1668 21.5164 28.7082 21.0417 29.2508 20.6764C29.7815 20.3191 30.3122 19.8537 30.3122 18.9964C30.3122 17.8111 29.3522 16.8511 28.1668 16.8511C26.9815 16.8511 26.0215 17.8111 26.0215 18.9964" stroke="#202020" stroke-width="1.75" stroke-linecap="round" stroke-linejoin="round"/>
<path d="M28.1667 25.611C28.0933 25.611 28.0333 25.671 28.0333 25.7443C28.0333 25.8176 28.0933 25.8776 28.1667 25.8776C28.24 25.8776 28.3 25.8176 28.3 25.7443C28.3 25.671 28.24 25.611 28.1667 25.611" stroke="#202020" stroke-width="1.75" stroke-linecap="round" stroke-linejoin="round"/>
</svg>
