<svg width="66" height="48" viewBox="0 0 66 48" fill="none" xmlns="http://www.w3.org/2000/svg">
<path d="M38.3058 3.74679V15.3299L30.7667 20.607C28.8407 21.954 27.6946 24.153 27.6946 26.5051V32.6731L6.7814 47.3163C4.30037 49.0533 0.892334 47.2803 0.892334 44.2503V26.6521C0.892334 24.21 2.08335 21.924 4.08437 20.523L32.4197 0.683755C34.8977 -1.05326 38.3058 0.719756 38.3058 3.74679Z" fill="#0F0F0F"/>
<path d="M38.3053 15.3301V35.6823C38.3053 37.0653 36.8053 37.9323 35.6053 37.2393L27.6942 32.6733V26.5052C27.6942 24.1532 28.8402 21.9542 30.7663 20.6071L38.3053 15.3301Z" fill="white"/>
<path d="M65.1077 3.74679V35.5592C65.1077 36.9992 63.5476 37.8992 62.2996 37.1792L54.4965 32.6731L33.5833 47.3163C31.1023 49.0533 27.6942 47.2803 27.6942 44.2503V32.6731L35.6053 37.2392C36.8053 37.9322 38.3053 37.0652 38.3053 35.6822V15.3299L59.2216 0.683755C61.6996 -1.05326 65.1077 0.719756 65.1077 3.74679Z" fill="#0F0F0F"/>
</svg>
