<svg width="189" height="30" viewBox="0 0 189 30" fill="none" xmlns="http://www.w3.org/2000/svg">
<g clip-path="url(#clip0_197_916)">
<path d="M23.3831 2.3417V9.58107L18.6712 12.8792C17.4675 13.7211 16.7512 15.0954 16.7512 16.5654V20.4204L3.68062 29.5723C2.13 30.6579 0 29.5498 0 27.6561V16.6573C0 15.1311 0.744375 13.7023 1.995 12.8267L19.7044 0.427323C21.2531 -0.658302 23.3831 0.449823 23.3831 2.3417Z" fill="#0F0F0F"/>
<path d="M40.1343 2.3417V22.2242C40.1343 23.1242 39.1593 23.6867 38.3793 23.2367L33.5025 20.4204L20.4318 29.5723C18.8812 30.6579 16.7512 29.5498 16.7512 27.6561V20.4204L21.6956 23.2742C22.4456 23.7073 23.3831 23.1654 23.3831 22.3011V9.58107L36.4556 0.427323C38.0043 -0.658302 40.1343 0.449823 40.1343 2.3417Z" fill="#0F0F0F"/>
</g>
<path d="M52.1345 25.8111V8.96982H56.9851L57.3226 10.7211C58.1645 9.54169 59.8145 8.42982 62.2408 8.42982C64.667 8.42982 66.3845 9.60919 67.3614 11.3942C68.237 9.60919 70.2245 8.42982 72.6489 8.42982C76.9933 8.42982 79.1495 10.9554 79.1495 14.7954V25.8092H73.9633V16.2429C73.9633 14.1204 72.8514 13.1098 71.2014 13.1098C69.7201 13.1098 68.237 13.9179 68.237 16.7811V25.8073H63.0508V16.2411C63.0508 14.1523 61.9726 13.1417 60.3226 13.1417C58.8414 13.1417 57.3245 13.9498 57.3245 16.7792V25.8054H52.1383L52.1345 25.8111Z" fill="#0F0F0F"/>
<path d="M81.9452 17.3567C81.9452 12.1029 85.4814 8.43169 90.5683 8.43169C95.6552 8.43169 99.1577 11.9004 99.1577 17.3904V18.7048L86.9308 18.7723C87.2346 20.9961 88.4796 22.0386 90.7708 22.0386C92.7246 22.0386 94.1046 21.3317 94.4758 20.1186H99.2252C98.6196 23.8573 95.2839 26.2479 90.6696 26.2479C85.5827 26.2479 81.9452 22.5429 81.9452 17.3548V17.3567ZM86.9964 15.5717H94.0033C94.0033 13.7867 92.6889 12.6411 90.6021 12.6411C88.5152 12.6411 87.4014 13.5504 86.9983 15.5717H86.9964Z" fill="#0F0F0F"/>
<path d="M102.221 25.8111V8.96982H107.106L107.443 10.7211C108.488 9.27357 110.408 8.42982 112.598 8.42982C116.606 8.42982 118.93 10.9892 118.93 15.4029V25.8111H113.743V16.6498C113.743 14.5273 112.564 13.1473 110.779 13.1473C108.724 13.1473 107.411 14.4954 107.411 16.5823V25.8111H102.225H102.221Z" fill="#0F0F0F"/>
<path d="M124.249 25.8111V13.2804H121.048V8.96982H124.249V3.74982H129.435V8.96982H132.636V13.2804H129.435V25.8111H124.249Z" fill="#0F0F0F"/>
<path d="M143.181 8.46545C148.536 8.46545 152.443 12.0355 152.443 17.3586C152.443 22.6817 148.536 26.218 143.181 26.218C137.826 26.218 133.885 22.6817 133.885 17.3586C133.885 12.0355 137.792 8.46545 143.181 8.46545ZM143.181 21.568C145.571 21.568 147.223 19.8842 147.223 17.3248C147.223 14.7655 145.573 13.1155 143.181 13.1155C140.788 13.1155 139.105 14.7992 139.105 17.3248C139.105 19.8505 140.755 21.568 143.181 21.568Z" fill="#0F0F0F"/>
<path d="M171.407 8.96982V25.8111H166.523L166.185 23.9248C165.141 25.3067 163.052 26.2498 161.031 26.2498C157.191 26.2498 154.834 23.6904 154.834 19.5467V8.96982H160.02V17.6604C160.02 20.4223 160.963 21.6354 163.086 21.6354C165.208 21.6354 166.219 20.4898 166.219 17.7279V8.96982H171.405H171.407Z" fill="#0F0F0F"/>
<path d="M178.682 20.4898C178.75 21.6692 179.625 22.3761 181.208 22.3761C182.79 22.3761 183.565 21.8042 183.565 20.9286C183.565 20.4242 183.295 19.8842 182.05 19.6142L178.95 18.9411C175.851 18.2679 174.336 16.9198 174.336 13.9554C174.336 10.4529 177.334 8.43169 181.376 8.43169C185.419 8.43169 188.012 10.7229 188.012 14.1242H183.094C183.094 12.9786 182.387 12.2042 181.14 12.2042C179.961 12.2042 179.22 12.8098 179.22 13.7192C179.22 14.4936 179.86 14.9323 181.039 15.2004L184.172 15.8736C186.934 16.4792 188.449 17.7598 188.449 20.4542C188.449 24.0579 185.383 26.2479 181.005 26.2479C176.627 26.2479 173.764 23.8892 173.764 20.4879H178.682V20.4898Z" fill="#0F0F0F"/>
<defs>
<clipPath id="clip0_197_916">
<rect width="40.1344" height="30" fill="white"/>
</clipPath>
</defs>
</svg>
