<svg width="84" height="50" viewBox="0 0 84 50" fill="none" xmlns="http://www.w3.org/2000/svg">
<rect width="50" height="50" rx="25" fill="#202020"/>
<path d="M37.7174 18.2329L30.956 24.9942C30.4347 25.5156 29.5907 25.5156 29.0707 24.9942L26.216 22.1396C25.6947 21.6182 24.8507 21.6182 24.3307 22.1396L16.384 30.0862" stroke="#DBF7FB" stroke-width="1.75" stroke-linecap="round" stroke-linejoin="round"/>
<path d="M37.7171 36.8055H12.2825V13.1948" stroke="#DBF7FB" stroke-width="1.75" stroke-linecap="round" stroke-linejoin="round"/>
<rect x="34" width="50" height="50" rx="25" fill="#DBF7FB"/>
<path fill-rule="evenodd" clip-rule="evenodd" d="M47 24.9998C47 24.1212 47.2027 23.2518 47.5947 22.4505C49.6147 18.3212 54.0787 15.6665 59 15.6665C63.9213 15.6665 68.3853 18.3212 70.4053 22.4505C70.7973 23.2518 71 24.1212 71 24.9998C71 25.8785 70.7973 26.7478 70.4053 27.5492C68.3853 31.6785 63.9213 34.3332 59 34.3332C54.0787 34.3332 49.6147 31.6785 47.5947 27.5492C47.2027 26.7478 47 25.8785 47 24.9998Z" fill="#202020"/>
<path fill-rule="evenodd" clip-rule="evenodd" d="M61.8298 22.173C63.3911 23.7343 63.3911 26.269 61.8298 27.833C60.2684 29.3943 57.7338 29.3943 56.1698 27.833C54.6084 26.2717 54.6084 23.737 56.1698 22.173C57.7338 20.609 60.2671 20.609 61.8298 22.173Z" fill="#DBF7FB"/>
</svg>
