<svg width="85" height="50" viewBox="0 0 85 50" fill="none" xmlns="http://www.w3.org/2000/svg">
<rect x="0.5" width="50" height="50" rx="25" fill="#F3EFFF"/>
<path d="M28.1528 14.8734V20.665L24.3832 23.3035C23.4202 23.977 22.8472 25.0765 22.8472 26.2525V29.3366L12.3906 36.6582C11.1501 37.5267 9.44604 36.6402 9.44604 35.1251V26.326C9.44604 25.105 10.0416 23.962 11.0421 23.2615L25.2097 13.3419C26.4487 12.4734 28.1528 13.3599 28.1528 14.8734Z" fill="#202020"/>
<path d="M28.153 20.6648V30.8409C28.153 31.5324 27.403 31.9659 26.803 31.6194L22.8474 29.3364V26.2524C22.8474 25.0763 23.4204 23.9768 24.3834 23.3033L28.153 20.6648Z" fill="#F3EFFF"/>
<path d="M41.5541 14.8732V30.7793C41.5541 31.4993 40.7741 31.9494 40.1501 31.5893L36.2486 29.3363L25.7919 36.6579C24.5514 37.5264 22.8474 36.6399 22.8474 35.1249V29.3363L26.803 31.6193C27.403 31.9659 28.153 31.5323 28.153 30.8408V20.6647L38.6111 13.3416C39.8501 12.4731 41.5541 13.3596 41.5541 14.8732Z" fill="#202020"/>
<rect x="34.5" width="50" height="50" rx="25" fill="#202020"/>
<path fill-rule="evenodd" clip-rule="evenodd" d="M55.6667 13H62.3334C63.438 13 64.3334 13.8954 64.3334 15C64.3334 17.5773 62.2441 19.6667 59.6667 19.6667H58.3334C55.7561 19.6667 53.6667 17.5773 53.6667 15C53.6667 13.8954 54.5622 13 55.6667 13Z" fill="#F3EFFF"/>
<path fill-rule="evenodd" clip-rule="evenodd" d="M48.3333 31.6667V30.3334C48.3333 24.4424 53.1089 19.6667 58.9999 19.6667C61.8289 19.6667 64.542 20.7906 66.5424 22.7909C68.5428 24.7913 69.6666 27.5044 69.6666 30.3334V31.6667C69.6666 34.6123 67.2788 37.0001 64.3333 37.0001H53.6666C50.7211 37.0001 48.3333 34.6123 48.3333 31.6667Z" fill="#F3EFFF"/>
</svg>
