<svg width="50" height="50" viewBox="0 0 50 50" fill="none" xmlns="http://www.w3.org/2000/svg">
<rect width="50" height="50" rx="25" fill="#202020"/>
<path fill-rule="evenodd" clip-rule="evenodd" d="M35.9609 14.7229C34.9169 13.6789 33.2435 13.6242 32.1329 14.5949L21.4169 23.9709C20.2555 24.9869 20.1969 26.7722 21.2875 27.8629L22.8195 29.3949C23.9102 30.4856 25.6969 30.4256 26.7115 29.2656L36.0875 18.5496C37.0595 17.4402 37.0035 15.7669 35.9609 14.7229Z" fill="#E9FACF"/>
<path d="M23.4933 22.1602L28.5333 27.2002" stroke="#202020" stroke-width="1.75" stroke-linecap="round" stroke-linejoin="round"/>
<path fill-rule="evenodd" clip-rule="evenodd" d="M13.7984 36.0977H18.7357C22.7157 36.0977 24.709 31.2857 21.8944 28.4711C19.825 26.4017 16.3104 27.1631 15.2837 29.9031L13.2544 35.3137C13.113 35.6937 13.393 36.0977 13.7984 36.0977Z" fill="#E9FACF"/>
</svg>
