<svg width="70" height="48" viewBox="0 0 70 48" fill="none" xmlns="http://www.w3.org/2000/svg">
<g clip-path="url(#clip0_123_1651)">
<path d="M67.856 7.49577C67.0658 4.54374 64.7459 2.22389 61.7939 1.43368C56.443 0 34.9999 0 34.9999 0C34.9999 0 13.5568 0 8.21159 1.43368C5.25956 2.22389 2.93971 4.54374 2.1495 7.49577C0.71582 12.841 0.71582 24 0.71582 24C0.71582 24 0.71582 35.159 2.1495 40.5042C2.93971 43.4563 5.25956 45.7761 8.21159 46.5663C13.5568 48 34.9999 48 34.9999 48C34.9999 48 56.443 48 61.7883 46.5663C64.7403 45.7761 67.0601 43.4563 67.8503 40.5042C69.284 35.159 69.284 24 69.284 24C69.284 24 69.284 12.841 67.8503 7.49577H67.856Z" fill="#FF0000"/>
<path d="M28.1421 34.2842L45.9615 24.0001L28.1421 13.716V34.2842Z" fill="white"/>
</g>
<defs>
<clipPath id="clip0_123_1651">
<rect width="68.5682" height="48" fill="white" transform="translate(0.71582)"/>
</clipPath>
</defs>
</svg>
